<?xml version="1.0" encoding="UTF-8" standalone="no"?>
<svg width="68px" height="68px" viewBox="0 0 68 68" version="1.1" xmlns="http://www.w3.org/2000/svg" xmlns:xlink="http://www.w3.org/1999/xlink" xmlns:sketch="http://www.bohemiancoding.com/sketch/ns">
    <!-- Generator: Sketch 3.5.1 (25234) - http://www.bohemiancoding.com/sketch -->
    <title>切图 copy 9</title>
    <desc>Created with Sketch.</desc>
    <defs></defs>
    <g id="Page-1" stroke="none" stroke-width="1" fill="none" fill-rule="evenodd" sketch:type="MSPage">
        <g id="切图" sketch:type="MSArtboardGroup" transform="translate(-549.000000, -35.000000)" fill="#FFFFFF">
            <g id="全部课程" sketch:type="MSLayerGroup" transform="translate(552.000000, 36.000000)">
                <path d="M53.8038857,0 L56.5546352,0 L56.5546352,66 L53.8038857,66 L53.8038857,0 L53.8038857,0 Z M49.7530813,0 L52.5037582,0 L52.5037582,66 L49.7530813,66 L49.7530813,0 L49.7530813,0 Z M44.3562264,0 L48.4529538,0 L48.4529538,66 L44.3562264,66 L44.3562264,0 L44.3562264,0 Z M57.8547626,0 L61.9514901,0 L61.9514901,66 L57.8547626,66 L57.8547626,0 L57.8547626,0 Z M22,0 L41.2546659,0 L41.2546659,66 L22,66 L22,0 L22,0 Z M0.0484,0 L19.3030659,0 L19.3030659,66 L0.0484,66 L0.0484,0 L0.0484,0 Z M24.7506769,21.9999758 L38.5040615,21.9999758 L38.5040615,19.2499516 L24.7506769,19.2499516 L24.7506769,21.9999758 L24.7506769,21.9999758 Z M3.0484,21.7500242 L16.8017846,21.7500242 L16.8017846,19 L3.0484,19 L3.0484,21.7500242 L3.0484,21.7500242 Z M24.7506769,13.7499758 L38.5040615,13.7499758 L38.5040615,10.9999516 L24.7506769,10.9999516 L24.7506769,13.7499758 L24.7506769,13.7499758 Z M3.0484,13.7500242 L16.8017846,13.7500242 L16.8017846,11 L3.0484,11 L3.0484,13.7500242 L3.0484,13.7500242 Z" id="Shape" sketch:type="MSShapeGroup"></path>
            </g>
        </g>
    </g>
</svg>