<?xml version="1.0" encoding="UTF-8" standalone="no"?>
<svg width="32px" height="32px" viewBox="0 0 32 32" version="1.1" xmlns="http://www.w3.org/2000/svg" xmlns:xlink="http://www.w3.org/1999/xlink">
    <!-- Generator: Sketch 3.7.1 (28215) - http://www.bohemiancoding.com/sketch -->
    <title>切图 copy 12</title>
    <desc>Created with Sketch.</desc>
    <defs></defs>
    <g id="Page-1" stroke="none" stroke-width="1" fill="none" fill-rule="evenodd">
        <g id="切图" transform="translate(-407.000000, -168.000000)">
            <g id="上部导航入口" transform="translate(62.000000, 24.000000)"></g>
            <g id="扩展" transform="translate(408.000000, 169.000000)">
                <path d="M15.1866381,2.16677666 L27.6522416,7.16179193 L27.6522416,5.76941508 L15.1866381,10.7644304 L15.7445689,10.7644304 L3.27896538,5.76941508 L3.27896538,7.16179193 L15.7445689,2.16677666 L15.1866381,2.16677666 L15.1866381,2.16677666 L15.1866381,2.16677666 L15.1866381,2.16677666 L15.1866381,2.16677666 L15.1866381,2.16677666 L15.1866381,2.16677666 L15.1866381,2.16677666 L15.1866381,2.16677666 L15.1866381,2.16677666 L15.1866381,2.16677666 Z M15.4656035,0.662617314 L15.1866381,0.774399814 L2.72103462,5.76941508 L0.983620749,6.4656035 L2.72103462,7.16179193 L15.1866381,12.1568072 L15.4656035,12.2685897 L15.7445689,12.1568072 L28.2101724,7.16179193 L29.9475863,6.4656035 L28.2101724,5.76941508 L15.7445689,0.774399814 L15.4656035,0.662617314 L15.4656035,0.662617314 L15.4656035,0.662617314 L15.4656035,0.662617314 L15.4656035,0.662617314 L15.4656035,0.662617314 L15.4656035,0.662617314 L15.4656035,0.662617314 L15.4656035,0.662617314 L15.4656035,0.662617314 Z" id="Rectangle-50" fill="#FEFEFE"></path>
                <path d="M1,9.53779258 L1,9.53779258 L1,8.92240797 L2.02563347,8.21800382 L2.6,8.43891403 L2.6,22.6470588 L1.67049308,21.1943238 L14.7647059,27.2378066 L14.7647059,27.9762682 L13.835199,28.5709968 L13.1647059,28.2615385 L13.1647059,13.1176471 L14.1903394,14.611 L1,9.53779258 L1,9.53779258 L1,9.53779258 L1,9.53779258 L1,9.53779258 L1,9.53779258 L1,9.53779258 L1,9.53779258 L1,9.53779258 L1,9.53779258 Z M1,7.82352941 L14.7647059,13.1176471 L14.7647059,29 L1,22.6470588 L1,7.82352941 L1,7.82352941 L1,7.82352941 L1,7.82352941 L1,7.82352941 L1,7.82352941 L1,7.82352941 L1,7.82352941 L1,7.82352941 L1,7.82352941 L1,7.82352941 Z" id="Rectangle-51" fill="#FFFFFF"></path>
                <path d="M29.5882353,8.92240797 L29.5882353,8.92240797 L29.5882353,9.53779258 L16.3978959,14.611 L17.4235294,13.1176471 L17.4235294,28.2615385 L16.7530363,28.5709968 L15.8235294,27.9762682 L15.8235294,27.2378066 L28.9177422,21.1943238 L27.9882353,22.6470588 L27.9882353,8.43891403 L28.5626018,8.21800382 L29.5882353,8.92240797 L29.5882353,8.92240797 L29.5882353,8.92240797 L29.5882353,8.92240797 L29.5882353,8.92240797 L29.5882353,8.92240797 L29.5882353,8.92240797 L29.5882353,8.92240797 L29.5882353,8.92240797 L29.5882353,8.92240797 Z M29.5882353,7.82352941 L29.5882353,22.6470588 L15.8235294,29 L15.8235294,13.1176471 L29.5882353,7.82352941 L29.5882353,7.82352941 L29.5882353,7.82352941 L29.5882353,7.82352941 L29.5882353,7.82352941 L29.5882353,7.82352941 L29.5882353,7.82352941 L29.5882353,7.82352941 L29.5882353,7.82352941 L29.5882353,7.82352941 Z" id="Rectangle-51-Copy" fill="#FFFFFF"></path>
            </g>
        </g>
    </g>
</svg>