<?xml version="1.0" encoding="UTF-8" standalone="no"?>
<svg width="32px" height="32px" viewBox="0 0 32 32" version="1.1" xmlns="http://www.w3.org/2000/svg" xmlns:xlink="http://www.w3.org/1999/xlink" xmlns:sketch="http://www.bohemiancoding.com/sketch/ns">
    <!-- Generator: Sketch 3.5.1 (25234) - http://www.bohemiancoding.com/sketch -->
    <title>切图 copy</title>
    <desc>Created with Sketch.</desc>
    <defs></defs>
    <g id="Page-1" stroke="none" stroke-width="1" fill="none" fill-rule="evenodd" sketch:type="MSPage">
        <g id="切图" sketch:type="MSArtboardGroup" transform="translate(-62.000000, -220.000000)" fill="#FFFFFF">
            <g id="上部导航入口" sketch:type="MSLayerGroup" transform="translate(62.000000, 24.000000)">
                <g id="首页(press)" transform="translate(0.000000, 197.000000)" sketch:type="MSShapeGroup">
                    <path d="M18.9452229,29.9999999 L25.7099414,30 C26.246984,30 26.7014771,29.553774 26.7014771,29.0033263 L26.7014771,18.5630166 L31.3630611,18.5630165 L31.3630611,15.9204123 L16.4712521,0.514741576 C16.0896349,0.11995619 15.4656291,0.120829831 15.0815236,0.520859341 C15.0815236,0.520859341 5.21819445,10.7930959 0.279674459,15.9363538 L0.279674459,18.505888 L0.373254995,18.5630175 L4.94125841,18.5630173 L4.94125841,29.0033259 C4.94125841,29.5512549 5.38518406,29.9999996 5.9327941,29.9999996 L12.7233735,29.9999998 L12.7233735,21.1202965 L18.9452229,21.1202965 L18.9452229,29.9999999 Z" id="Rectangle-67-Copy"></path>
                </g>
            </g>
        </g>
    </g>
</svg>