<?xml version="1.0" encoding="utf-8"?>
<!-- Generator: Adobe Illustrator 17.0.0, SVG Export Plug-In . SVG Version: 6.00 Build 0)  -->
<!DOCTYPE svg PUBLIC "-//W3C//DTD SVG 1.1//EN" "http://www.w3.org/Graphics/SVG/1.1/DTD/svg11.dtd">
<svg version="1.1" id="图层_1" xmlns:sketch="http://www.bohemiancoding.com/sketch/ns"
	 xmlns="http://www.w3.org/2000/svg" xmlns:xlink="http://www.w3.org/1999/xlink" x="0px" y="0px" width="32px" height="32px"
	 viewBox="0 0 32 32" enable-background="new 0 0 32 32" xml:space="preserve">
<g id="Page-1" sketch:type="MSPage">
	<g id="切图" transform="translate(-62.000000, -168.000000)" sketch:type="MSArtboardGroup">
		<g id="上部导航入口" transform="translate(62.000000, 24.000000)" sketch:type="MSLayerGroup">
			<g id="首页" transform="translate(0.000000, 144.000000)">
				<g id="Rectangle-102-Copy-7">
					<rect sketch:type="MSShapeGroup" fill="none" width="32" height="32">
					</rect>
				</g>
				<g id="Rectangle-67-Copy">
					<path fill="#FFFFFF" d="M25.153,30.091H6.823c-1.108,0-2.009-0.896-2.009-1.999v-9.637H0.455v-2.917L14.53,0.879
						c0.752-0.784,2.075-0.791,2.826-0.013l14.166,14.654v2.934h-4.359v9.637C27.162,29.194,26.261,30.091,25.153,30.091z
						 M2.455,16.455h4.359v11.637l18.34-0.001c0.007,0,0.011-0.001,0.011-0.001l-0.002-11.635h4.359V16.33L15.917,2.256
						L2.455,16.341V16.455z"/>
				</g>
				<g id="Rectangle-82">
					<g sketch:type="MSShapeGroup">
						<g id="path-1">
							<path fill="#FFFFFF" d="M19.909,30.091h-7.818V19.364h7.818V30.091z M14.091,28.091h3.818v-6.727h-3.818V28.091z"/>
						</g>
					</g>
					<g>
						<g id="path-1_1_">
							<rect x="13.091" y="20.364" fill="none" width="5.818" height="8.727"/>
						</g>
					</g>
				</g>
			</g>
		</g>
	</g>
</g>
</svg>
