<?xml version="1.0" encoding="UTF-8" standalone="no"?>
<svg width="32px" height="32px" viewBox="0 0 32 32" version="1.1" xmlns="http://www.w3.org/2000/svg" xmlns:xlink="http://www.w3.org/1999/xlink" xmlns:sketch="http://www.bohemiancoding.com/sketch/ns">
    <!-- Generator: Sketch 3.5.1 (25234) - http://www.bohemiancoding.com/sketch -->
    <title>切图 copy 7</title>
    <desc>Created with Sketch.</desc>
    <defs></defs>
    <g id="Page-1" stroke="none" stroke-width="1" fill="none" fill-rule="evenodd" sketch:type="MSPage">
        <g id="切图" sketch:type="MSArtboardGroup" transform="translate(-142.000000, -220.000000)" fill="#FFFFFF">
            <g id="上部导航入口" sketch:type="MSLayerGroup" transform="translate(62.000000, 168.000000)">
                <g id="监控-copy" transform="translate(82.000000, 59.000000)" sketch:type="MSShapeGroup">
                    <path d="M13.5625,19.6428571 C21.0528619,19.6428571 27.125,14.2857143 28,9.82142857 C27.125,5.35714286 21.0528619,0 13.5625,0 C6.07213808,0 0.753472222,5.89285714 0,9.82142857 C0.753472222,13.75 6.07213808,19.6428571 13.5625,19.6428571 Z M6.34041249,10.6804932 C6.63135635,14.9636572 10.1285737,18.3460884 14.4,18.3460884 C18.8620005,18.3460884 22.4791667,14.6551026 22.4791667,10.1020408 C22.4791667,5.54897904 18.8620005,1.8579932 14.4,1.8579932 C9.93799946,1.8579932 6.32083333,5.54897904 6.32083333,10.1020408 C6.32083333,10.2965043 6.32743172,10.4893952 6.34041249,10.6804932 Z" id="Oval-3" stroke="#FFFFFF" stroke-width="2"></path>
                    <ellipse id="Oval-1-Copy" cx="14.4666667" cy="10" rx="4.2" ry="4.28571429"></ellipse>
                </g>
            </g>
        </g>
    </g>
</svg>