<?xml version="1.0" encoding="utf-8"?>
<!-- Generator: Adobe Illustrator 17.0.0, SVG Export Plug-In . SVG Version: 6.00 Build 0)  -->
<!DOCTYPE svg PUBLIC "-//W3C//DTD SVG 1.1//EN" "http://www.w3.org/Graphics/SVG/1.1/DTD/svg11.dtd">
<svg version="1.1" id="图层_1" xmlns:sketch="http://www.bohemiancoding.com/sketch/ns"
	 xmlns="http://www.w3.org/2000/svg" xmlns:xlink="http://www.w3.org/1999/xlink" x="0px" y="0px" width="32px" height="32px"
	 viewBox="0 0 32 32" enable-background="new 0 0 32 32" xml:space="preserve">
<g id="Page-1" sketch:type="MSPage">
	<g id="切图" transform="translate(-142.000000, -168.000000)" sketch:type="MSArtboardGroup">
		<g id="上部导航入口" transform="translate(62.000000, 24.000000)" sketch:type="MSLayerGroup">
			<g id="监控" transform="translate(82.000000, 151.000000)" sketch:type="MSShapeGroup">
				<g id="Oval-3">
					<path fill="#FFFFFF" d="M13.521,21C5.469,21-0.19,14.713-1.023,10.367l-0.036-0.188l0.036-0.188
						C-0.19,5.645,5.469-0.643,13.521-0.643c7.859,0,14.433,5.602,15.418,10.629l0.037,0.192l-0.037,0.192
						C27.954,15.398,21.38,21,13.521,21z M0.98,10.179C1.743,13.442,6.433,19,13.521,19c7.12,0,12.532-5.073,13.415-8.821
						c-0.882-3.748-6.295-8.822-13.415-8.822C6.433,1.357,1.743,6.915,0.98,10.179z"/>
				</g>
				<g id="Oval-1-Copy">
					<path fill="#FFFFFF" d="M13.958,16.378c-3.309,0-6-2.737-6-6.103c0-3.365,2.691-6.102,6-6.102c3.308,0,6,2.737,6,6.102
						C19.958,13.641,17.267,16.378,13.958,16.378z M13.958,6.173c-2.206,0-4,1.84-4,4.102s1.794,4.103,4,4.103s4-1.841,4-4.103
						S16.164,6.173,13.958,6.173z"/>
				</g>
			</g>
		</g>
	</g>
</g>
</svg>
