<?xml version="1.0" encoding="UTF-8" standalone="no"?>
<svg width="32px" height="32px" viewBox="0 0 32 32" version="1.1" xmlns="http://www.w3.org/2000/svg" xmlns:xlink="http://www.w3.org/1999/xlink" xmlns:sketch="http://www.bohemiancoding.com/sketch/ns">
    <!-- Generator: Sketch 3.5.1 (25234) - http://www.bohemiancoding.com/sketch -->
    <title>切图 copy 6</title>
    <desc>Created with Sketch.</desc>
    <defs></defs>
    <g id="Page-1" stroke="none" stroke-width="1" fill="none" fill-rule="evenodd" sketch:type="MSPage">
        <g id="切图" sketch:type="MSArtboardGroup" transform="translate(-329.000000, -221.000000)" stroke="#FFFFFF" stroke-width="0.5" fill="#FFFFFF">
            <g id="上部导航入口" sketch:type="MSLayerGroup" transform="translate(62.000000, 168.000000)">
                <g id="通知" transform="translate(271.000000, 1.000000)" sketch:type="MSShapeGroup">
                    <path d="M21.191918,72.6159637 L21.191918,64.5219248 C21.191918,62.8342492 20.5788327,61.0549342 19.4655327,59.5117783 C18.3330259,57.9418613 16.7430134,56.7134195 14.9885833,56.0527371 C14.9174344,56.0289385 14.7679278,55.9811932 14.5482599,55.918043 L14.5482599,55.6484573 C14.5482599,54.1881027 13.3601572,53 11.8998026,53 C10.4394481,53 9.25134537,54.1881027 9.25134537,55.6484573 L9.25134537,55.8986387 C9.04673673,55.9570983 8.91702947,55.9986718 8.9021677,56.0035105 C7.09791851,56.6563918 5.48074996,57.8835005 4.32558019,59.4666499 C3.19144401,61.0209151 2.56690381,62.8162769 2.56690381,64.5219742 L2.56690381,72.6160625 L0.211287695,76.761856 C-0.0721229198,77.2559483 -0.0703454198,77.8711073 0.216175791,78.3675203 C0.500968897,78.8607238 1.03401783,79.1670937 1.60735647,79.1670937 L7.42848191,79.1670937 C7.76225468,81.3347899 9.64022025,82.9999999 11.899852,82.9999999 C14.1594838,82.9999999 16.0374987,81.3347898 16.3712221,79.1670937 L22.1913601,79.1670937 C23.0786723,79.1670937 23.8005299,78.4461248 23.8005299,77.5599482 C23.8005299,77.1576434 23.6567015,76.7814084 23.3932383,76.4887647 L21.191918,72.6159637 Z M11.899852,54.3824907 C12.576285,54.3824907 13.1305156,54.9157866 13.1641892,55.5839739 C13.0222864,55.5571141 12.8786061,55.5325255 12.7357158,55.5117388 C12.6744912,55.5028514 12.613316,55.5023576 12.553622,55.5094676 C12.528984,55.5058632 12.5039017,55.5021107 12.4784738,55.4982102 C12.3018606,55.4715478 12.1016956,55.4413799 11.8784234,55.4413799 C11.6553486,55.4413799 11.4552825,55.4715478 11.2787187,55.4981608 C11.2570925,55.5014195 11.2357627,55.5046288 11.2147291,55.5077394 C11.1528626,55.4993951 11.0894656,55.4992964 11.025871,55.5082332 C10.8956206,55.5265512 10.7651727,55.547881 10.6365517,55.5712353 C10.6764958,54.9090716 11.2277146,54.3824907 11.899852,54.3824907 L11.899852,54.3824907 Z M11.899852,81.6175092 C10.4050833,81.6175092 9.15165789,80.5678037 8.83580813,79.1670937 L14.9639453,79.1670937 C14.6480461,80.5678037 13.3946208,81.6175092 11.899852,81.6175092 L11.899852,81.6175092 Z" id="Shape-Copy"></path>
                </g>
            </g>
        </g>
    </g>
</svg>