<?xml version="1.0" encoding="UTF-8" standalone="no"?>
<svg width="32px" height="32px" viewBox="0 0 32 32" version="1.1" xmlns="http://www.w3.org/2000/svg" xmlns:xlink="http://www.w3.org/1999/xlink" xmlns:sketch="http://www.bohemiancoding.com/sketch/ns">
    <!-- Generator: Sketch 3.5.1 (25234) - http://www.bohemiancoding.com/sketch -->
    <title>切图 copy 4</title>
    <desc>Created with Sketch.</desc>
    <defs></defs>
    <g id="Page-1" stroke="none" stroke-width="1" fill="none" fill-rule="evenodd" sketch:type="MSPage">
        <g id="切图" sketch:type="MSArtboardGroup" transform="translate(-329.000000, -168.000000)" stroke="#FFFFFF" stroke-width="0.5" fill="#FFFFFF">
            <g id="上部导航入口" sketch:type="MSLayerGroup" transform="translate(62.000000, 168.000000)">
                <g id="通知" transform="translate(271.000000, 1.000000)" sketch:type="MSShapeGroup">
                    <path d="M23.4168014,23.4887648 L21.2154811,19.6159638 L21.2154811,11.5219248 C21.2154811,9.83424926 20.6023958,8.05493426 19.4890958,6.51177835 C18.356589,4.94186136 16.7665765,3.71341957 15.0121463,3.0527371 C15.0019258,3.04888588 14.9916065,3.04528151 14.9812378,3.04192403 C14.9409974,3.02893849 14.7914909,2.98119319 14.571823,2.91804299 L14.571823,2.6484573 C14.571823,1.18810269 13.3837203,2.92968707e-08 11.9233657,2.92968707e-08 C10.4630111,2.92968707e-08 9.27490846,1.18810271 9.27490846,2.6484573 L9.27490846,2.89863876 C9.07029981,2.95709836 8.94059256,2.99867183 8.92573078,3.00351056 C8.91802834,3.00597929 8.9103259,3.00864551 8.90272219,3.01141052 C7.12148159,3.65639183 5.50431305,4.88350049 4.34914327,6.46664991 C3.2150071,8.02091514 2.59046689,9.81627688 2.59046689,11.5219742 L2.59046689,19.6160625 L0.234850781,23.761856 C-0.048559834,24.2559484 -0.046782334,24.8711074 0.239738877,25.3675203 C0.524531982,25.8607239 1.05758092,26.1670937 1.63091956,26.1670937 L7.452045,26.1670937 C7.78581776,28.3347899 9.66378334,30 11.9234151,30 C14.1830469,30 16.0610618,28.3347899 16.3947852,26.1670937 L22.2149232,26.1670937 C23.1022354,26.1670937 23.824093,25.4461248 23.824093,24.5599482 C23.824093,24.1576434 23.6802646,23.7814084 23.4168014,23.4887648 L23.4168014,23.4887648 Z M11.9234151,1.38249076 C12.5998481,1.38249076 13.1540787,1.91578658 13.1877523,2.58397397 C13.0458495,2.55711416 12.9021692,2.53252556 12.7592789,2.51173884 C12.6980543,2.5028514 12.6368791,2.50235766 12.5771851,2.5094676 C12.5525471,2.50586323 12.5274648,2.50211077 12.5020368,2.49821019 C12.3254237,2.47154786 12.1252587,2.44137993 11.9019865,2.44137993 C11.6789117,2.44137993 11.4788456,2.47154786 11.3022817,2.49816079 C11.2806556,2.50141951 11.2593258,2.50462887 11.2382922,2.50773946 C11.1764257,2.49939516 11.1130286,2.4992964 11.0494341,2.5082332 C10.9191837,2.52655119 10.7887358,2.54788107 10.6601148,2.57123528 C10.7000589,1.90907162 11.2512777,1.38249076 11.9234151,1.38249076 L11.9234151,1.38249076 Z M11.9234151,28.6175092 C10.4286463,28.6175092 9.17522098,27.5678037 8.85937122,26.1670937 L14.9875084,26.1670937 C14.6716092,27.5678037 13.4181838,28.6175092 11.9234151,28.6175092 L11.9234151,28.6175092 Z M22.2149232,24.784603 L1.63096893,24.784603 C1.54994508,24.784603 1.47563622,24.7430295 1.43707459,24.6763243 C1.3959455,24.6050767 1.39480986,24.518276 1.43549461,24.4472752 L3.88275012,20.1402241 C3.94190098,20.0361916 3.97300702,19.9184824 3.97300702,19.7987488 L3.97300702,11.5219248 C3.97300702,8.53001733 6.2883334,5.43442304 9.3609191,4.31579054 C9.46193968,4.2838945 10.2565262,4.03716929 11.0580253,3.90538828 C11.1057212,3.91062199 11.1543552,3.91096761 11.2032362,3.90593142 C11.3111198,3.89497025 11.4113998,3.87981223 11.5083716,3.8651973 C11.6554587,3.84302807 11.7824998,3.82387069 11.9018877,3.82387069 C12.0214732,3.82387069 12.1485636,3.84302807 12.2957495,3.86524667 C12.3926226,3.87986156 12.4928038,3.89497022 12.6005393,3.90593139 C12.644779,3.91042447 12.6887718,3.91062199 12.7320241,3.90677074 C13.5638391,4.04610606 14.4126391,4.31164304 14.540717,4.35247588 C17.5590893,5.49668446 19.8330397,8.5758864 19.8330397,11.5219248 L19.8330397,19.7986995 C19.8330397,19.9184824 19.8641457,20.0361916 19.923346,20.1402734 L22.2572372,24.246271 C22.2898245,24.3036443 22.3305093,24.3561296 22.3780077,24.4019493 C22.4190381,24.4415972 22.4416516,24.4976374 22.4416516,24.5598988 C22.4416023,24.685903 22.3420629,24.784603 22.2149232,24.784603 L22.2149232,24.784603 Z" id="Shape"></path>
                </g>
            </g>
        </g>
    </g>
</svg>