<?xml version="1.0" encoding="UTF-8" standalone="no"?>
<svg width="68px" height="68px" viewBox="0 0 68 68" version="1.1" xmlns="http://www.w3.org/2000/svg" xmlns:xlink="http://www.w3.org/1999/xlink" xmlns:sketch="http://www.bohemiancoding.com/sketch/ns">
    <!-- Generator: Sketch 3.5.1 (25234) - http://www.bohemiancoding.com/sketch -->
    <title>切图</title>
    <desc>Created with Sketch.</desc>
    <defs></defs>
    <g id="Page-1" stroke="none" stroke-width="1" fill="none" fill-rule="evenodd" sketch:type="MSPage">
        <g id="切图" sketch:type="MSArtboardGroup" transform="translate(-291.000000, -35.000000)" fill="#FFFFFF">
            <g id="全部机构" sketch:type="MSLayerGroup" transform="translate(291.000000, 42.000000)">
                <path d="M18.18574,54.2808782 L30.0711842,54.2808782 L30.0711842,42.1569033 L37.2153046,42.1569033 L37.2153046,54.2808782 L49.1007487,54.2808782 L49.1007487,-3.55271368e-15 L18.18574,-3.55271368e-15 L18.18574,54.2808782 L18.18574,54.2808782 L18.18574,54.2808782 Z M35.8119382,6.3970143 L42.9559198,6.3970143 L42.9559198,13.5236246 L35.8119382,13.5236246 L35.8119382,6.3970143 L35.8119382,6.3970143 L35.8119382,6.3970143 Z M35.8119382,17.8505197 L42.9559198,17.8505197 L42.9559198,24.97713 L35.8119382,24.97713 L35.8119382,17.8505197 L35.8119382,17.8505197 L35.8119382,17.8505197 Z M35.8119382,29.3037482 L42.9559198,29.3037482 L42.9559198,36.4303585 L35.8119382,36.4303585 L35.8119382,29.3037482 L35.8119382,29.3037482 L35.8119382,29.3037482 Z M24.3304303,6.3970143 L31.4744119,6.3970143 L31.4744119,13.5236246 L24.3304303,13.5236246 L24.3304303,6.3970143 L24.3304303,6.3970143 L24.3304303,6.3970143 Z M24.3304303,17.8505197 L31.4744119,17.8505197 L31.4744119,24.97713 L24.3304303,24.97713 L24.3304303,17.8505197 L24.3304303,17.8505197 L24.3304303,17.8505197 Z M24.3304303,29.3037482 L31.4744119,29.3037482 L31.4744119,36.4303585 L24.3304303,36.4303585 L24.3304303,29.3037482 L24.3304303,29.3037482 Z M51.8758328,4.86249534 L51.8758328,43.2431967 L56.4655765,43.2431967 L56.4655765,54.2808782 L67.28635,54.2808782 L67.28635,4.86249534 L51.8758328,4.86249534 L51.8758328,4.86249534 Z M61.6921792,38.0296812 L55.1879718,38.0296812 L55.1879718,31.5415539 L61.6920404,31.5415539 L61.6920404,38.0296812 L61.6921792,38.0296812 L61.6921792,38.0296812 Z M61.6921792,27.6020965 L55.1879718,27.6020965 L55.1879718,21.1141076 L61.6920404,21.1141076 L61.6920404,27.6020965 L61.6921792,27.6020965 L61.6921792,27.6020965 Z M61.6921792,17.1746499 L55.1879718,17.1746499 L55.1879718,10.6866611 L61.6920404,10.6866611 L61.6920404,17.1746499 L61.6921792,17.1746499 L61.6921792,17.1746499 Z M-1.77635684e-15,54.2808782 L10.8207735,54.2808782 L10.8207735,43.2431967 L15.4105172,43.2431967 L15.4105172,4.86249534 L-1.77635684e-15,4.86249534 L-1.77635684e-15,54.2808782 L-1.77635684e-15,54.2808782 Z M5.59430963,10.6866611 L12.0983782,10.6866611 L12.0983782,17.1746499 L5.59430963,17.1746499 L5.59430963,10.6866611 L5.59430963,10.6866611 L5.59430963,10.6866611 Z M5.59430963,21.1141076 L12.0983782,21.1141076 L12.0983782,27.6020965 L5.59430963,27.6020965 L5.59430963,21.1141076 L5.59430963,21.1141076 L5.59430963,21.1141076 Z M5.59430963,31.5412771 L12.0983782,31.5412771 L12.0983782,38.029266 L5.59430963,38.029266 L5.59430963,31.5412771 L5.59430963,31.5412771 L5.59430963,31.5412771 Z" id="Shape" sketch:type="MSShapeGroup"></path>
            </g>
        </g>
    </g>
</svg>