<?xml version="1.0" encoding="UTF-8" standalone="no"?>
<svg width="68px" height="68px" viewBox="0 0 68 68" version="1.1" xmlns="http://www.w3.org/2000/svg" xmlns:xlink="http://www.w3.org/1999/xlink" xmlns:sketch="http://www.bohemiancoding.com/sketch/ns">
    <!-- Generator: Sketch 3.5.1 (25234) - http://www.bohemiancoding.com/sketch -->
    <title>数据统计</title>
    <desc>Created with Sketch.</desc>
    <defs></defs>
    <g id="Page-1" stroke="none" stroke-width="1" fill="none" fill-rule="evenodd" sketch:type="MSPage">
        <g id="切图" sketch:type="MSArtboardGroup" transform="translate(-47.000000, -35.000000)" fill="#FFFFFF">
            <g id="数据统计" sketch:type="MSLayerGroup" transform="translate(47.000000, 39.000000)">
                <path d="M3.23389237,60.3122143 C1.47585026,60.3122143 0.0495352488,58.9396346 0.0495352488,57.2438087 L0.0495352488,3.08261676 C0.0495352488,1.3888068 1.47591982,0.0163661259 3.23389237,0.0163661259 C4.99186492,0.0163661259 6.41824949,1.38887636 6.41824949,3.08261676 L6.41824949,47.0231123 L6.41824949,54.1797131 L64.7983159,54.1797131 C66.5562884,54.1797131 67.9827425,55.5520148 67.9827425,57.2437392 C67.9827425,58.9396346 66.556358,60.3122143 64.7983854,60.3122143 L3.23389237,60.3122143 Z M57.3682419,51.1114465 L50.9993886,51.1114465 C49.2414856,51.1114465 47.8149619,49.7390753 47.8149619,48.0451959 L47.8149619,26.581928 C47.8149619,24.8860326 49.2414855,23.5135919 50.9993886,23.5135919 L57.3682419,23.5135919 C59.1262145,23.5135919 60.552599,24.8859631 60.552599,26.581928 L60.552599,48.0451959 C60.5525295,49.7390753 59.1262145,51.1114465 57.3682419,51.1114465 L57.3682419,51.1114465 Z M32.9546749,51.1114465 C31.1967024,51.1114465 29.7703178,49.7390753 29.7703178,48.0451959 L29.7703178,8.36511803 C29.7703178,6.67123857 31.1967024,5.29886739 32.9546749,5.29886739 L39.3235282,5.29886739 C41.0815008,5.29886739 42.5078854,6.67123857 42.5078854,8.36511803 L42.5078854,48.0451959 C42.5078159,49.7390753 41.0815008,51.1114465 39.3235282,51.1114465 L32.9546749,51.1114465 Z M14.9098917,51.1114465 C13.1518496,51.1114465 11.7255346,49.7390753 11.7255346,48.0451959 L11.7255346,14.7129031 C11.7255346,13.0190237 13.1519192,11.6466525 14.9098917,11.6466525 L21.278745,11.6466525 C23.0367872,11.6466525 24.4631022,13.0190237 24.4631022,14.7129031 L24.4631022,48.0451959 C24.4631022,49.7390753 23.0367177,51.1114465 21.278745,51.1114465 L14.9098917,51.1114465 Z" id="Shape" sketch:type="MSShapeGroup"></path>
            </g>
        </g>
    </g>
</svg>