<?xml version="1.0" encoding="UTF-8" standalone="no"?>
<svg width="68px" height="68px" viewBox="0 0 68 68" version="1.1" xmlns="http://www.w3.org/2000/svg" xmlns:xlink="http://www.w3.org/1999/xlink" xmlns:sketch="http://www.bohemiancoding.com/sketch/ns">
    <!-- Generator: Sketch 3.5.1 (25234) - http://www.bohemiancoding.com/sketch -->
    <title>数据统计 copy</title>
    <desc>Created with Sketch.</desc>
    <defs></defs>
    <g id="Page-1" stroke="none" stroke-width="1" fill="none" fill-rule="evenodd" sketch:type="MSPage">
        <g id="切图" sketch:type="MSArtboardGroup" transform="translate(-161.000000, -35.000000)" fill="#FFFFFF">
            <g id="全部老师" sketch:type="MSLayerGroup" transform="translate(163.000000, 39.000000)">
                <path d="M8.7337988,51.7456226 C3.68025278,50.7774673 0.0335161345,48.9440655 0.0335161345,45.6601886 L0.0335161345,44.0803268 C0.0335161345,39.8640728 7.64982247,35.592686 14.1426311,33.2494558 C14.6118523,33.0781482 16.8530989,31.8598911 15.5999071,28.5782557 C12.3840004,25.3004642 9.95396158,19.9897007 9.95396158,14.7626977 C9.95396158,6.75656531 15.2584829,2.56130882 21.461377,2.56130882 C22.7925135,2.56130882 24.0838092,2.75475153 25.2909965,3.13782946 C22.4250908,5.5751497 20.5779406,9.41176711 20.5779406,14.5754148 C20.5779406,20.8194364 22.5110955,26.195774 26.3527216,30.1113259 C27.3884397,32.8234799 26.4260736,34.3558153 25.5490003,35.1104243 C25.1583531,35.4465261 24.7846263,35.6283426 24.6119032,35.6914019 C16.8557878,38.4905548 8.72727273,44.5607679 8.72727273,49.597379 L8.72727273,51.4846347 C8.72727273,51.5724973 8.72945811,51.6594906 8.7337988,51.7456226 Z" id="Shape" sketch:type="MSShapeGroup"></path>
                <path d="M44.5011526,31.0880199 C48.2994454,27.1633531 51.2182296,20.8442881 51.2182296,14.6252809 C51.2182296,5.06146285 44.8451409,0.049866153 37.4398814,0.049866153 C30.0300893,0.049866153 23.6934666,5.06139427 23.6934666,14.6252809 C23.6934666,20.8693026 26.5963184,27.2133821 30.4379445,31.128934 C31.93497,35.0490776 29.2576437,36.5043712 28.6971261,36.70901 C20.9410108,39.5081629 11.8427987,44.610634 11.8427987,49.6472452 L11.8427987,51.5345009 C11.8427987,58.3970308 25.1745596,59.9569055 37.5128132,59.9569055 C49.8694027,59.9569055 63.0325001,58.3970309 63.0325001,51.5345009 L63.0325001,49.6472452 C63.0325688,44.4582857 53.8888258,39.3966601 45.752119,36.70901 C45.3807297,36.5884608 43.0359918,35.5333987 44.5011526,31.0880199 Z" id="Shape" sketch:type="MSShapeGroup"></path>
            </g>
        </g>
    </g>
</svg>