<?xml version="1.0" encoding="UTF-8" standalone="no"?>
<svg width="32px" height="32px" viewBox="0 0 32 32" version="1.1" xmlns="http://www.w3.org/2000/svg" xmlns:xlink="http://www.w3.org/1999/xlink" xmlns:sketch="http://www.bohemiancoding.com/sketch/ns">
    <!-- Generator: Sketch 3.5.1 (25234) - http://www.bohemiancoding.com/sketch -->
    <title>切图 copy 3</title>
    <desc>Created with Sketch.</desc>
    <defs></defs>
    <g id="Page-1" stroke="none" stroke-width="1" fill="none" fill-rule="evenodd" sketch:type="MSPage">
        <g id="切图" sketch:type="MSArtboardGroup" transform="translate(-235.000000, -168.000000)" stroke="#FFFFFF" stroke-width="0.5" fill="#FFFFFF">
            <g id="上部导航入口" sketch:type="MSLayerGroup" transform="translate(62.000000, 168.000000)">
                <g id="工具箱" transform="translate(174.000000, 6.000000)" sketch:type="MSShapeGroup">
                    <path d="M6.6132709,0.00637002342 L0.0132709087,7.20637003 L0.0132709087,20.40637 L30.0132709,20.40637 L30.0132709,7.20637003 L23.4600709,0.00637002342 L6.6132709,0.00637002342 Z M7.14127088,1.20637001 L22.9296709,1.20637001 L28.3908709,7.20637003 L19.2132709,7.20637003 C19.2132709,9.45337004 17.2602709,11.26837 15.0132709,11.26837 C12.7662709,11.26837 10.8132709,9.45337 10.8132709,7.20637003 L1.6416709,7.20637003 L7.14127088,1.20637001 L7.14127088,1.20637001 Z M28.8132709,19.20637 L1.2132709,19.20637 L1.2132709,8.40637001 L9.7614709,8.40637001 C10.3356709,10.70317 12.5082709,12.46837 15.0132709,12.46837 C17.5182709,12.46837 19.6908709,10.70317 20.2650709,8.40637001 L28.8132709,8.40637001 L28.8132709,19.20637 L28.8132709,19.20637 Z" id="Shape"></path>
                </g>
            </g>
        </g>
    </g>
</svg>