<?xml version="1.0" encoding="UTF-8" standalone="no"?>
<svg width="32px" height="32px" viewBox="0 0 32 32" version="1.1" xmlns="http://www.w3.org/2000/svg" xmlns:xlink="http://www.w3.org/1999/xlink" xmlns:sketch="http://www.bohemiancoding.com/sketch/ns">
    <!-- Generator: Sketch 3.5.1 (25234) - http://www.bohemiancoding.com/sketch -->
    <title>切图 copy 5</title>
    <desc>Created with Sketch.</desc>
    <defs></defs>
    <g id="Page-1" stroke="none" stroke-width="1" fill="none" fill-rule="evenodd" sketch:type="MSPage">
        <g id="切图" sketch:type="MSArtboardGroup" transform="translate(-235.000000, -220.000000)" fill="#FFFFFF">
            <g id="上部导航入口" sketch:type="MSLayerGroup" transform="translate(62.000000, 168.000000)">
                <g id="工具箱-copy" transform="translate(174.000000, 58.000000)" sketch:type="MSShapeGroup">
                    <path d="M6.59999999,1.77635684e-15 L0,7.2 L0,20.4 L30,20.4 L30,7.2 L23.4468,1.77635684e-15 L6.59999999,1.77635684e-15 Z M28.8,19.2 L1.19999999,19.2 L1.19999999,8.39999999 L9.74819999,8.39999999 C10.3224,10.6968 12.495,12.462 15,12.462 C17.505,12.462 19.6776,10.6968 20.2518,8.39999999 L28.8,8.39999999 L28.8,19.2 L28.8,19.2 Z" id="Shape" stroke="#FFFFFF" stroke-width="0.5"></path>
                    <path d="M8.94989912,10 L3,10 L3,18 L27,18 L27,10 L21.0501009,10 C19.9454487,12.2234653 17.6511768,13.7515564 15,13.7515564 C12.3488232,13.7515564 10.0545513,12.2234653 8.94990168,10.0000005 Z" id="Rectangle-43"></path>
                </g>
            </g>
        </g>
    </g>
</svg>